name rise38.3101peak57.3503fall81.6963.mot
datacolumns 19
datarows 27
range 1.10333700000000 1.14666800000000
endheader
time	ground_force1_vx	ground_force1_vy	ground_force1_vz	ground_force1_px	ground_force1_py	ground_force1_pz	ground_force2_vx	ground_force2_vy	ground_force2_vz	ground_force2_px	ground_force2_py	ground_force2_pz	ground_torque1_x	ground_torque1_y	ground_torque1_z	ground_torque2_x	ground_torque2_y	ground_torque2_z	
1.10333700000000	0.21255900000000	661.87690399999997	38.96214200000000	0.20917400000000	0.00000000000000	0.10482100000000	0.00000000000000	0.00000000000000	0.00000000000000	0.00000000000000	0.00000000000000	0.00000000000000	0.00000000000000	16.05545000000000	0.00000000000000	0.00000000000000	0.00000000000000	0.00000000000000	
1.10499800000000	-0.16406900000000	662.21413199999995	38.91075300000000	0.20834300000000	0.00000000000000	0.10479800000000	0.00000000000000	0.00000000000000	0.00000000000000	0.00000000000000	0.00000000000000	0.00000000000000	0.00000000000000	16.11303800000000	0.00000000000000	0.00000000000000	0.00000000000000	0.00000000000000	
1.10667000000000	-0.54665800000000	662.65173600000003	38.86552300000000	0.20750600000000	0.00000000000000	0.10477600000000	0.00000000000000	0.00000000000000	0.00000000000000	0.00000000000000	0.00000000000000	0.00000000000000	0.00000000000000	16.17557900000000	0.00000000000000	0.00000000000000	0.00000000000000	0.00000000000000	
1.10833100000000	-0.93589700000000	663.18833299999994	38.82620000000000	0.20666200000000	0.00000000000000	0.10475400000000	0.00000000000000	0.00000000000000	0.00000000000000	0.00000000000000	0.00000000000000	0.00000000000000	0.00000000000000	16.24297500000000	0.00000000000000	0.00000000000000	0.00000000000000	0.00000000000000	
1.10999700000000	-1.33245200000000	663.82245499999999	38.79253200000000	0.20580900000000	0.00000000000000	0.10473200000000	0.00000000000000	0.00000000000000	0.00000000000000	0.00000000000000	0.00000000000000	0.00000000000000	0.00000000000000	16.31512600000000	0.00000000000000	0.00000000000000	0.00000000000000	0.00000000000000	
1.11166400000000	-1.73696100000000	664.55255899999997	38.76427400000000	0.20494800000000	0.00000000000000	0.10471100000000	0.00000000000000	0.00000000000000	0.00000000000000	0.00000000000000	0.00000000000000	0.00000000000000	0.00000000000000	16.39192800000000	0.00000000000000	0.00000000000000	0.00000000000000	0.00000000000000	
1.11333800000000	-2.15003400000000	665.37703999999997	38.74118000000000	0.20407700000000	0.00000000000000	0.10469000000000	0.00000000000000	0.00000000000000	0.00000000000000	0.00000000000000	0.00000000000000	0.00000000000000	0.00000000000000	16.47328000000000	0.00000000000000	0.00000000000000	0.00000000000000	0.00000000000000	
1.11500500000000	-2.57224800000000	666.29423399999996	38.72301600000000	0.20319500000000	0.00000000000000	0.10466900000000	0.00000000000000	0.00000000000000	0.00000000000000	0.00000000000000	0.00000000000000	0.00000000000000	0.00000000000000	16.55907500000000	0.00000000000000	0.00000000000000	0.00000000000000	0.00000000000000	
1.11667000000000	-3.00414500000000	667.30243299999995	38.70955200000000	0.20230300000000	0.00000000000000	0.10464900000000	0.00000000000000	0.00000000000000	0.00000000000000	0.00000000000000	0.00000000000000	0.00000000000000	0.00000000000000	16.64920700000000	0.00000000000000	0.00000000000000	0.00000000000000	0.00000000000000	
1.11833300000000	-3.44623000000000	668.39989200000002	38.70056900000000	0.20139900000000	0.00000000000000	0.10462900000000	0.00000000000000	0.00000000000000	0.00000000000000	0.00000000000000	0.00000000000000	0.00000000000000	0.00000000000000	16.74357100000000	0.00000000000000	0.00000000000000	0.00000000000000	0.00000000000000	
1.11999900000000	-3.89897100000000	669.58483500000000	38.69585900000000	0.20048300000000	0.00000000000000	0.10460900000000	0.00000000000000	0.00000000000000	0.00000000000000	0.00000000000000	0.00000000000000	0.00000000000000	0.00000000000000	16.84205900000000	0.00000000000000	0.00000000000000	0.00000000000000	0.00000000000000	
1.12166900000000	-4.36279400000000	670.85546599999998	38.69522600000000	0.19955600000000	0.00000000000000	0.10459000000000	0.00000000000000	0.00000000000000	0.00000000000000	0.00000000000000	0.00000000000000	0.00000000000000	0.00000000000000	16.94456200000000	0.00000000000000	0.00000000000000	0.00000000000000	0.00000000000000	
1.12333500000000	-4.83808100000000	672.20997699999998	38.69848600000000	0.19861700000000	0.00000000000000	0.10457100000000	0.00000000000000	0.00000000000000	0.00000000000000	0.00000000000000	0.00000000000000	0.00000000000000	0.00000000000000	17.05097200000000	0.00000000000000	0.00000000000000	0.00000000000000	0.00000000000000	
1.12500200000000	-5.32517400000000	673.64654800000005	38.70547100000000	0.19766500000000	0.00000000000000	0.10455200000000	0.00000000000000	0.00000000000000	0.00000000000000	0.00000000000000	0.00000000000000	0.00000000000000	0.00000000000000	17.16117900000000	0.00000000000000	0.00000000000000	0.00000000000000	0.00000000000000	
1.12667100000000	-5.82436500000000	675.16336200000001	38.71602900000000	0.19670100000000	0.00000000000000	0.10453300000000	0.00000000000000	0.00000000000000	0.00000000000000	0.00000000000000	0.00000000000000	0.00000000000000	0.00000000000000	17.27507400000000	0.00000000000000	0.00000000000000	0.00000000000000	0.00000000000000	
1.12833200000000	-6.33590200000000	676.75860100000000	38.73002400000000	0.19572600000000	0.00000000000000	0.10451500000000	0.00000000000000	0.00000000000000	0.00000000000000	0.00000000000000	0.00000000000000	0.00000000000000	0.00000000000000	17.39254500000000	0.00000000000000	0.00000000000000	0.00000000000000	0.00000000000000	
1.12999800000000	-6.85998400000000	678.43046000000004	38.74733900000000	0.19473900000000	0.00000000000000	0.10449700000000	0.00000000000000	0.00000000000000	0.00000000000000	0.00000000000000	0.00000000000000	0.00000000000000	0.00000000000000	17.51348000000000	0.00000000000000	0.00000000000000	0.00000000000000	0.00000000000000	
1.13166300000000	-7.39676200000000	680.17714100000001	38.76787300000000	0.19374000000000	0.00000000000000	0.10447800000000	0.00000000000000	0.00000000000000	0.00000000000000	0.00000000000000	0.00000000000000	0.00000000000000	0.00000000000000	17.63776600000000	0.00000000000000	0.00000000000000	0.00000000000000	0.00000000000000	
1.13333400000000	-7.94633600000000	681.99686399999996	38.79154800000000	0.19273000000000	0.00000000000000	0.10446000000000	0.00000000000000	0.00000000000000	0.00000000000000	0.00000000000000	0.00000000000000	0.00000000000000	0.00000000000000	17.76528900000000	0.00000000000000	0.00000000000000	0.00000000000000	0.00000000000000	
1.13500000000000	-8.50875900000000	683.88786700000003	38.81830400000000	0.19170900000000	0.00000000000000	0.10444200000000	0.00000000000000	0.00000000000000	0.00000000000000	0.00000000000000	0.00000000000000	0.00000000000000	0.00000000000000	17.89593200000000	0.00000000000000	0.00000000000000	0.00000000000000	0.00000000000000	
1.13666900000000	-9.08403000000000	685.84840399999996	38.84810200000000	0.19067800000000	0.00000000000000	0.10442400000000	0.00000000000000	0.00000000000000	0.00000000000000	0.00000000000000	0.00000000000000	0.00000000000000	0.00000000000000	18.02958000000000	0.00000000000000	0.00000000000000	0.00000000000000	0.00000000000000	
1.13833700000000	-9.67210100000000	687.87675300000001	38.88092300000000	0.18963700000000	0.00000000000000	0.10440600000000	0.00000000000000	0.00000000000000	0.00000000000000	0.00000000000000	0.00000000000000	0.00000000000000	0.00000000000000	18.16611200000000	0.00000000000000	0.00000000000000	0.00000000000000	0.00000000000000	
1.13999900000000	-10.27287200000000	689.97120800000005	38.91677100000000	0.18858700000000	0.00000000000000	0.10438800000000	0.00000000000000	0.00000000000000	0.00000000000000	0.00000000000000	0.00000000000000	0.00000000000000	0.00000000000000	18.30540700000000	0.00000000000000	0.00000000000000	0.00000000000000	0.00000000000000	
1.14166900000000	-10.88619200000000	692.13008500000001	38.95567100000000	0.18752900000000	0.00000000000000	0.10436900000000	0.00000000000000	0.00000000000000	0.00000000000000	0.00000000000000	0.00000000000000	0.00000000000000	0.00000000000000	18.44734200000000	0.00000000000000	0.00000000000000	0.00000000000000	0.00000000000000	
1.14333700000000	-11.51186300000000	694.35171900000000	38.99767100000000	0.18646200000000	0.00000000000000	0.10435100000000	0.00000000000000	0.00000000000000	0.00000000000000	0.00000000000000	0.00000000000000	0.00000000000000	0.00000000000000	18.59179100000000	0.00000000000000	0.00000000000000	0.00000000000000	0.00000000000000	
1.14500100000000	-12.14963500000000	696.63445999999999	39.04283800000000	0.18538900000000	0.00000000000000	0.10433200000000	0.00000000000000	0.00000000000000	0.00000000000000	0.00000000000000	0.00000000000000	0.00000000000000	0.00000000000000	18.73862600000000	0.00000000000000	0.00000000000000	0.00000000000000	0.00000000000000	
1.14666800000000	-12.79921200000000	698.97667300000001	39.09126200000000	0.18430900000000	0.00000000000000	0.10431300000000	0.00000000000000	0.00000000000000	0.00000000000000	0.00000000000000	0.00000000000000	0.00000000000000	0.00000000000000	18.88771500000000	0.00000000000000	0.00000000000000	0.00000000000000	0.00000000000000	
